<svg width="276" height="53" viewBox="0 0 276 53" fill="none" xmlns="http://www.w3.org/2000/svg">
<path d="M62.1611 29.5986L56.1582 19.2627H59.3135L63.541 27.0762L67.7158 19.2627H70.8711L64.9473 29.5811V33H62.1611V29.5986ZM72.4619 19.2627H75.248V26.8301C75.248 27.4512 75.333 28.0049 75.5029 28.4912C75.6729 28.9717 75.9248 29.3789 76.2588 29.7129C76.5986 30.0469 77.0176 30.3018 77.5156 30.4775C78.0137 30.6475 78.5938 30.7324 79.2559 30.7324C79.9121 30.7324 80.4893 30.6475 80.9873 30.4775C81.4912 30.3018 81.9102 30.0469 82.2441 29.7129C82.584 29.3789 82.8389 28.9717 83.0088 28.4912C83.1787 28.0049 83.2637 27.4512 83.2637 26.8301V19.2627H86.0498V27.1641C86.0498 28.0664 85.8975 28.8867 85.5928 29.625C85.2881 30.3633 84.8457 30.9961 84.2656 31.5234C83.6855 32.0508 82.9736 32.458 82.1299 32.7451C81.292 33.0322 80.334 33.1758 79.2559 33.1758C78.1777 33.1758 77.2168 33.0322 76.373 32.7451C75.5352 32.458 74.8262 32.0508 74.2461 31.5234C73.666 30.9961 73.2236 30.3633 72.9189 29.625C72.6143 28.8867 72.4619 28.0664 72.4619 27.1641V19.2627ZM89.46 19.2627H92.2461L97.2383 24.2725L102.23 19.2627H105.017V33H102.23V23.1211L97.2383 27.9287L92.2461 23.1211V33H89.46V19.2627ZM113.138 29.5986L107.135 19.2627H110.29L114.518 27.0762L118.692 19.2627H121.848L115.924 29.5811V33H113.138V29.5986ZM123.438 19.2627H126.225V26.8301C126.225 27.4512 126.31 28.0049 126.479 28.4912C126.649 28.9717 126.901 29.3789 127.235 29.7129C127.575 30.0469 127.994 30.3018 128.492 30.4775C128.99 30.6475 129.57 30.7324 130.232 30.7324C130.889 30.7324 131.466 30.6475 131.964 30.4775C132.468 30.3018 132.887 30.0469 133.221 29.7129C133.561 29.3789 133.815 28.9717 133.985 28.4912C134.155 28.0049 134.24 27.4512 134.24 26.8301V19.2627H137.026V27.1641C137.026 28.0664 136.874 28.8867 136.569 29.625C136.265 30.3633 135.822 30.9961 135.242 31.5234C134.662 32.0508 133.95 32.458 133.106 32.7451C132.269 33.0322 131.311 33.1758 130.232 33.1758C129.154 33.1758 128.193 33.0322 127.35 32.7451C126.512 32.458 125.803 32.0508 125.223 31.5234C124.643 30.9961 124.2 30.3633 123.896 29.625C123.591 28.8867 123.438 28.0664 123.438 27.1641V19.2627ZM140.41 19.2627H143.196L151.757 23.7451V19.2627H154.543V33H151.757V26.6982L143.196 22.2422V33H140.41V19.2627ZM157.487 26.0039C157.487 25.0371 157.669 24.1348 158.032 23.2969C158.396 22.4531 158.926 21.7207 159.623 21.0996C160.32 20.4785 161.176 19.9893 162.189 19.6318C163.209 19.2744 164.375 19.0957 165.688 19.0957C166.162 19.0957 166.637 19.1221 167.111 19.1748C167.592 19.2217 168.063 19.2979 168.526 19.4033C168.995 19.5088 169.449 19.6436 169.889 19.8076C170.334 19.9658 170.756 20.1562 171.154 20.3789L169.871 22.4883C169.631 22.3477 169.358 22.2217 169.054 22.1104C168.749 21.9932 168.421 21.8965 168.069 21.8203C167.724 21.7383 167.363 21.6768 166.988 21.6357C166.619 21.5947 166.247 21.5742 165.872 21.5742C165.005 21.5742 164.231 21.6855 163.552 21.9082C162.872 22.125 162.298 22.4326 161.829 22.8311C161.36 23.2236 161.003 23.6953 160.757 24.2461C160.511 24.7969 160.388 25.4004 160.388 26.0566C160.388 26.7363 160.517 27.3604 160.774 27.9287C161.032 28.4971 161.398 28.9863 161.873 29.3965C162.348 29.8066 162.922 30.1289 163.596 30.3633C164.27 30.5918 165.022 30.7061 165.854 30.7061C166.517 30.7061 167.123 30.6328 167.674 30.4863C168.225 30.334 168.705 30.1201 169.115 29.8447C169.525 29.5693 169.859 29.2383 170.117 28.8516C170.375 28.459 170.545 28.0195 170.627 27.5332H165.828V25.2393H173.132V25.248L173.141 25.2393C173.287 25.9424 173.331 26.6279 173.272 27.2959C173.22 27.958 173.067 28.585 172.815 29.1768C172.569 29.7627 172.229 30.3018 171.796 30.7939C171.362 31.2861 170.844 31.7109 170.24 32.0684C169.637 32.4199 168.951 32.6953 168.184 32.8945C167.416 33.0879 166.575 33.1846 165.661 33.1846C164.384 33.1846 163.238 32.9971 162.225 32.6221C161.217 32.2471 160.361 31.7344 159.658 31.084C158.955 30.4336 158.416 29.6719 158.041 28.7988C157.672 27.9258 157.487 26.9941 157.487 26.0039ZM186.544 21.7061H181.473V19.2627H194.401V21.7061H189.33V33H186.544V21.7061ZM197.381 19.2627H204.368C205.423 19.2627 206.337 19.374 207.11 19.5967C207.884 19.8135 208.525 20.1299 209.035 20.5459C209.545 20.9619 209.923 21.4688 210.169 22.0664C210.421 22.6641 210.547 23.3408 210.547 24.0967C210.547 24.6064 210.485 25.0928 210.362 25.5557C210.239 26.0127 210.049 26.4346 209.791 26.8213C209.539 27.208 209.22 27.5537 208.833 27.8584C208.446 28.1572 207.992 28.4062 207.471 28.6055L210.459 33H207.049L204.465 29.0977H204.386L200.167 29.0889V33H197.381V19.2627ZM204.438 26.6807C204.966 26.6807 205.426 26.6191 205.818 26.4961C206.217 26.373 206.548 26.2002 206.812 25.9775C207.081 25.7549 207.28 25.4854 207.409 25.1689C207.544 24.8467 207.611 24.4893 207.611 24.0967C207.611 23.3291 207.348 22.7373 206.82 22.3213C206.293 21.8994 205.499 21.6885 204.438 21.6885H200.167V26.6807H204.438ZM218.536 19.2627H221.489L228.134 33H225.207L224.108 30.6885H216.084L215.021 33H212.085L218.536 19.2627ZM223.01 28.3945L220.039 22.1543L217.147 28.3945H223.01ZM228.433 19.2627H231.518L235.833 29.7393L240.148 19.2627H243.233L237.213 33H234.453L228.433 19.2627ZM245.299 19.2627H256.997V21.7061H248.085V24.4482H255.978V26.7422H248.085V30.5654H257.182V33H245.299V19.2627ZM260.275 19.2627H263.062V30.5566H271.051V33H260.275V19.2627Z" fill="#9B9B9B"/>
<path d="M20.0389 8.2958L27.692 12.5352L31.5724 10.392L20.0389 4L0.774124 14.6784L4.63493 16.8216L20.0389 8.2958Z" fill="black"/>
<path d="M35.4333 12.5352L20.039 21.061L12.386 16.8216L8.51541 18.9648L20.039 25.3474L39.3137 14.6784L35.4333 12.5352Z" fill="black"/>
<path d="M3.8706 26.8797L0 24.7365V37.5016L19.2648 48.18V43.8937L3.8706 35.3584V26.8797Z" fill="black"/>
<path d="M0 20.4499L15.3942 28.9757V37.4545L19.2648 39.6071V26.8325L0 16.1635V20.4499Z" fill="black"/>
<path d="M32.3466 24.7364V20.45L20.8132 26.8326V48.18L24.6838 46.0368V28.9758L32.3466 24.7364Z" fill="black"/>
<path d="M36.2074 18.3067V35.3583L28.5544 39.6071V43.8935L40.0878 37.5015V16.1635L36.2074 18.3067Z" fill="black"/>
</svg>
